<svg width="592" height="574" viewBox="0 0 592 574" fill="none" xmlns="http://www.w3.org/2000/svg">
<path d="M512.365 572.532H60.0818L244.905 133.684H327.542L512.365 572.532Z" fill="#F2F9FA"/>
<path d="M278.386 100.665L286.223 92.8279L294.06 100.665" stroke="#FFCF2D" stroke-width="5" stroke-miterlimit="10"/>
<path d="M286.223 92.8279V0.5" stroke="#FFCF2D" stroke-width="5" stroke-miterlimit="10"/>
<path d="M286.223 147.368C293.192 147.368 298.841 141.719 298.841 134.751C298.841 127.782 293.192 122.133 286.223 122.133C279.255 122.133 273.605 127.782 273.605 134.751C273.605 141.719 279.255 147.368 286.223 147.368Z" fill="#FFCF2D" stroke="white" stroke-width="1.06629" stroke-miterlimit="10"/>
<path d="M327.542 133.684H244.922L246.024 128.655C249.65 112.092 266.55 100.079 286.241 100.079C296.086 100.079 305.239 103.082 312.365 108.147C319.509 113.212 324.627 120.356 326.44 128.637L327.542 133.684Z" stroke="#9A3B82" stroke-width="5" stroke-miterlimit="10" stroke-linecap="round"/>
<path d="M354.556 416.712H346.167V469.671H354.556V416.712Z" fill="#66B0F0"/>
<path d="M506.874 469.671H459.122C457.399 469.671 456.066 468.178 456.279 466.472L462.926 410.368C463.103 408.928 464.329 407.844 465.769 407.844H513.521C515.245 407.844 516.578 409.337 516.364 411.043L509.718 467.147C509.54 468.587 508.314 469.671 506.874 469.671Z" fill="#9A3B82"/>
<path d="M480.857 469.671H443.146C440.836 469.671 439.041 467.645 439.308 465.353L444.141 424.496C444.372 422.559 446.025 421.084 447.98 421.084H486.597L480.857 469.671Z" fill="white" stroke="#FFCF2D" stroke-width="1.06629" stroke-miterlimit="10"/>
<path d="M485.087 469.671H449.1C446.789 469.671 444.994 467.645 445.261 465.353L450.095 424.496C450.326 422.559 451.979 421.084 453.933 421.084H490.383C491.538 421.084 492.444 422.097 492.302 423.252L487.006 467.947C486.899 468.942 486.064 469.671 485.087 469.671Z" fill="white" stroke="#FFCF2D" stroke-width="1.06629" stroke-miterlimit="10"/>
<path d="M369.643 424.674H355.089V469.671H369.643V424.674Z" stroke="#9A3B82" stroke-width="1.06629" stroke-miterlimit="10" stroke-linecap="round"/>
<path d="M385.069 424.674H364.579V469.671H385.069V424.674Z" stroke="#9A3B82" stroke-width="1.06629" stroke-miterlimit="10" stroke-linecap="round"/>
<path d="M409.896 469.671H404.227L383.132 419.733H388.801L409.896 469.671Z" stroke="#9A3B82" stroke-width="1.06629" stroke-miterlimit="10" stroke-linecap="round"/>
<path d="M420.701 469.671H410.145L391.982 427.322H402.538L420.701 469.671Z" stroke="#9A3B82" stroke-width="1.06629" stroke-miterlimit="10" stroke-linecap="round"/>
<path d="M345.634 424.674H330.955V469.671H345.634V424.674Z" stroke="#9A3B82" stroke-width="1.06629" stroke-miterlimit="10" stroke-linecap="round"/>
<path d="M399.233 390.179H330.955V398.958H399.233V390.179Z" stroke="#9A3B82" stroke-width="1.06629" stroke-miterlimit="10" stroke-linecap="round"/>
<path d="M417.449 383.462H330.955V390.535H417.449V383.462Z" fill="#FE5244"/>
<path d="M389.334 373.261H330.955V383.284H389.334V373.261Z" fill="#FFCF2D"/>
<path d="M399.233 365.602H330.955V373.083H399.233V365.602Z" stroke="#9A3B82" stroke-width="1.06629" stroke-miterlimit="10" stroke-linecap="round"/>
<path d="M517.04 345.875L516.986 346.177L508.918 398.958H434.065L442.133 346.177L442.24 345.431C443.519 342.836 451.339 340.828 460.811 340.828C471.172 340.828 479.56 343.227 479.56 346.177C479.56 343.227 487.948 340.828 498.309 340.828C508.314 340.846 516.471 343.067 517.04 345.875Z" fill="white" stroke="#FFCF2D" stroke-width="1.06629" stroke-miterlimit="10"/>
<path d="M471.58 398.976L479.577 346.195" stroke="#FFCF2D" stroke-width="1.06629" stroke-miterlimit="10"/>
<path d="M471.58 398.976C471.58 396.026 463.192 393.627 452.831 393.627C442.471 393.627 434.083 396.026 434.083 398.976H471.58Z" fill="#FFCF2D"/>
<path d="M509.078 398.976C509.078 396.026 500.69 393.627 490.329 393.627C479.968 393.627 471.58 396.026 471.58 398.976H509.078Z" fill="#FFCF2D"/>
<path d="M471.865 397.857C471.758 394.907 480.057 392.223 490.418 391.85C496.887 391.619 503.267 392.525 506.626 393.822L514.623 343.547" stroke="#FFCF2D" stroke-width="1.06629" stroke-miterlimit="10" stroke-linecap="round"/>
<path d="M511.068 328.264H443.857V313.3C443.857 311.825 445.048 310.635 446.523 310.635H508.42C509.896 310.635 511.086 311.825 511.086 313.3V328.264H511.068Z" fill="white" stroke="#9A3B82" stroke-width="1.06629" stroke-miterlimit="10" stroke-linecap="round"/>
<path d="M516.435 309.924H458.518C457.612 309.924 456.901 309.195 456.901 308.306V302.353C456.901 301.447 457.63 300.736 458.518 300.736H516.435C517.342 300.736 518.053 301.464 518.053 302.353V308.306C518.053 309.195 517.324 309.924 516.435 309.924Z" fill="#FFCF2D"/>
<path d="M518.692 295.156H449.988V300.736H518.692V295.156Z" fill="#FE5244"/>
<path d="M517.448 295.156H465.005C464.312 295.156 463.761 294.587 463.761 293.912V289.415C463.761 288.722 464.33 288.171 465.005 288.171H517.448C518.142 288.171 518.692 288.74 518.692 289.415V293.912C518.692 294.587 518.142 295.156 517.448 295.156Z" fill="white" stroke="#9A3B82" stroke-width="1.06629" stroke-miterlimit="10" stroke-linecap="round"/>
<path d="M373.18 273.368H353.009V328.264H373.18V273.368Z" stroke="#9A3B82" stroke-width="1.06629" stroke-miterlimit="10" stroke-linecap="round"/>
<path d="M353.009 273.368H344.87V328.264H353.009V273.368Z" fill="white" stroke="#9A3B82" stroke-width="1.06629" stroke-miterlimit="10" stroke-linecap="round"/>
<path d="M344.87 273.368H331.186V328.264H344.87V273.368Z" fill="white" stroke="#9A3B82" stroke-width="1.06629" stroke-miterlimit="10" stroke-linecap="round"/>
<path d="M393.528 283.284H375.846V328.281H393.528V283.284Z" stroke="#9A3B82" stroke-width="1.06629" stroke-miterlimit="10" stroke-linecap="round"/>
<path d="M377.125 328.264H370.159C369.483 328.264 368.915 327.713 368.915 327.02V284.493C368.915 283.817 369.466 283.249 370.159 283.249H377.125C377.801 283.249 378.369 283.8 378.369 284.493V327.02C378.351 327.713 377.801 328.264 377.125 328.264Z" fill="white" stroke="#9A3B82" stroke-width="1.06629" stroke-miterlimit="10" stroke-linecap="round"/>
<path d="M393.528 283.284V307.951L383.949 283.284H393.528Z" fill="#9A3B82"/>
<path d="M434.474 328.264H406.182C405.56 328.264 404.991 327.873 404.778 327.304L386.402 279.997C386.011 279.001 386.74 277.935 387.806 277.935H416.098C416.72 277.935 417.289 278.326 417.502 278.895L435.878 326.202C436.269 327.197 435.54 328.264 434.474 328.264Z" fill="white" stroke="#FFCF2D" stroke-width="1.06629" stroke-miterlimit="10"/>
<path d="M439.094 328.264H410.802C410.18 328.264 409.611 327.873 409.398 327.304L391.023 279.997C390.632 279.001 391.36 277.935 392.426 277.935H420.719C421.341 277.935 421.909 278.326 422.123 278.895L440.498 326.202C440.889 327.197 440.161 328.264 439.094 328.264Z" fill="white" stroke="#FFCF2D" stroke-width="1.06629" stroke-miterlimit="10"/>
<path d="M488.783 245.555C486.135 246.302 483.327 246.711 480.448 246.711C463.619 246.711 449.988 233.08 449.988 216.25C449.988 202.371 459.282 190.642 471.989 186.981L488.783 245.555Z" stroke="#FFCF2D" stroke-width="1.06629" stroke-miterlimit="10"/>
<path d="M480.448 246.711V257.569" stroke="#FFCF2D" stroke-width="1.06629" stroke-miterlimit="10"/>
<path d="M480.448 242.055C494.7 242.055 506.252 230.502 506.252 216.25C506.252 201.999 494.7 190.446 480.448 190.446C466.197 190.446 454.644 201.999 454.644 216.25C454.644 230.502 466.197 242.055 480.448 242.055Z" fill="white" stroke="#3FB1B5" stroke-width="1.06629" stroke-miterlimit="10"/>
<path d="M491.236 257.498H469.75L480.413 252.149L491.236 257.498Z" fill="white" stroke="#FFCF2D" stroke-width="1.06629" stroke-miterlimit="10"/>
<path d="M518.692 257.569V572.532H508.971V549.607C508.971 544.506 504.831 540.366 499.73 540.366H349.811C344.71 540.366 340.569 544.506 340.569 549.607V572.532H330.955V257.569H518.692Z" stroke="#9A3B82" stroke-width="1.06629" stroke-miterlimit="10" stroke-linecap="round"/>
<path d="M505.204 531.64H344.088C342.044 531.64 340.374 529.987 340.374 527.926V481.56C340.374 479.516 342.027 477.846 344.088 477.846H505.204C507.247 477.846 508.918 479.499 508.918 481.56V527.926C508.918 529.987 507.247 531.64 505.204 531.64Z" stroke="#3FB1B5" stroke-width="1.06629" stroke-miterlimit="10"/>
<path d="M433.141 214.313V257.569H418L433.141 214.313Z" fill="#9A3B82"/>
<path d="M433.141 214.313L433.034 214.633L418.088 257.569H348.602L363.548 214.633L364.028 213.265C366.267 210.048 372.469 207.702 379.862 207.578C379.986 207.578 380.093 207.578 380.217 207.578C380.342 207.578 380.448 207.578 380.573 207.578C389.21 207.578 396.905 210.581 398.309 214.527C399.695 210.581 407.052 207.578 415.689 207.578C424.148 207.578 431.559 210.475 433.141 214.313Z" fill="white" stroke="#FFCF2D" stroke-width="1.06629" stroke-miterlimit="10"/>
<path d="M398.291 214.527L383.203 256.68" stroke="#FFCF2D" stroke-width="1.06629" stroke-miterlimit="10" stroke-linecap="round"/>
<path d="M383.167 257.036H348.602C349.882 253.037 357.061 249.963 365.698 249.963C374.371 249.963 381.888 253.037 383.167 257.036Z" fill="#FFCF2D"/>
<path d="M418 257.036H383.434C384.714 253.037 391.893 249.963 400.53 249.963C409.203 249.963 416.72 253.037 418 257.036Z" fill="#FFCF2D"/>
<path d="M413.077 491.583C413.077 490.197 414.196 489.06 415.6 489.06H434.456C435.842 489.06 436.979 490.179 436.979 491.583" stroke="#9A3B82" stroke-width="1.06629" stroke-miterlimit="10" stroke-linecap="round"/>
<path d="M330.955 398.976H518.692" stroke="#9A3B82" stroke-width="1.06629" stroke-miterlimit="10" stroke-linecap="round"/>
<path d="M330.955 328.264H518.692" stroke="#9A3B82" stroke-width="1.06629" stroke-miterlimit="10" stroke-linecap="round"/>
<path d="M330.955 469.671H518.692" stroke="#9A3B82" stroke-width="1.06629" stroke-miterlimit="10" stroke-linecap="round"/>
<path d="M354.058 191.53L330.955 257.569H518.692L541.795 191.53" stroke="#9A3B82" stroke-width="1.06629" stroke-miterlimit="10" stroke-linecap="round" stroke-linejoin="round"/>
<path d="M562.872 555.578C562.872 559.15 562.215 562.58 561.006 565.761C559.247 570.382 554.786 573.403 549.828 573.403H512.206C507.265 573.403 502.787 570.382 501.045 565.761C499.837 562.58 499.179 559.15 499.179 555.578C499.179 545.271 504.635 536.172 512.97 530.734V524.727C512.97 527.357 521.056 529.49 531.008 529.49C540.978 529.49 549.046 527.357 549.046 524.727V530.751C557.416 536.172 562.872 545.271 562.872 555.578Z" fill="#FE5244"/>
<path d="M549.082 529.099V530.698C546.22 532.973 538.437 534.181 531.044 534.181C523.651 534.181 515.867 532.973 513.006 530.698V529.099C513.343 529.863 514.783 530.858 517.982 531.693C521.465 532.617 526.103 533.115 531.044 533.115C535.984 533.115 540.622 532.617 544.106 531.693C547.305 530.84 548.726 529.845 549.082 529.099Z" fill="white"/>
<path d="M549.082 524.727C549.082 527.357 540.996 529.49 531.044 529.49C521.092 529.49 513.006 527.357 513.006 524.727C513.006 524.389 513.13 524.069 513.379 523.749C515.085 521.599 522.336 519.964 531.044 519.964C539.752 519.964 547.002 521.581 548.708 523.749C548.939 524.069 549.082 524.389 549.082 524.727Z" fill="#66B0F0"/>
<path d="M506.892 548.025C508.149 548.025 509.167 547.007 509.167 545.75C509.167 544.494 508.149 543.476 506.892 543.476C505.636 543.476 504.618 544.494 504.618 545.75C504.618 547.007 505.636 548.025 506.892 548.025Z" stroke="#FFCF2D" stroke-width="1.06629" stroke-miterlimit="10"/>
<path d="M514.605 553.623C515.861 553.623 516.88 552.605 516.88 551.348C516.88 550.092 515.861 549.074 514.605 549.074C513.349 549.074 512.33 550.092 512.33 551.348C512.33 552.605 513.349 553.623 514.605 553.623Z" stroke="#FFCF2D" stroke-width="1.06629" stroke-miterlimit="10"/>
<path d="M524.202 546.977C525.458 546.977 526.477 545.958 526.477 544.702C526.477 543.446 525.458 542.427 524.202 542.427C522.945 542.427 521.927 543.446 521.927 544.702C521.927 545.958 522.945 546.977 524.202 546.977Z" stroke="#FFCF2D" stroke-width="1.06629" stroke-miterlimit="10"/>
<path d="M522.851 562.082C524.107 562.082 525.126 561.064 525.126 559.808C525.126 558.551 524.107 557.533 522.851 557.533C521.595 557.533 520.576 558.551 520.576 559.808C520.576 561.064 521.595 562.082 522.851 562.082Z" stroke="#FFCF2D" stroke-width="1.06629" stroke-miterlimit="10"/>
<path d="M514.321 568.711C515.577 568.711 516.596 567.693 516.596 566.436C516.596 565.18 515.577 564.162 514.321 564.162C513.065 564.162 512.046 565.18 512.046 566.436C512.046 567.693 513.065 568.711 514.321 568.711Z" stroke="#FFCF2D" stroke-width="1.06629" stroke-miterlimit="10"/>
<path d="M505.719 562.082C506.976 562.082 507.994 561.064 507.994 559.808C507.994 558.551 506.976 557.533 505.719 557.533C504.463 557.533 503.445 558.551 503.445 559.808C503.445 561.064 504.463 562.082 505.719 562.082Z" stroke="#FFCF2D" stroke-width="1.06629" stroke-miterlimit="10"/>
<path d="M515.849 539.584C517.106 539.584 518.124 538.565 518.124 537.309C518.124 536.053 517.106 535.034 515.849 535.034C514.593 535.034 513.574 536.053 513.574 537.309C513.574 538.565 514.593 539.584 515.849 539.584Z" stroke="#FFCF2D" stroke-width="1.06629" stroke-miterlimit="10"/>
<path d="M533.958 541.307C535.215 541.307 536.233 540.289 536.233 539.033C536.233 537.776 535.215 536.758 533.958 536.758C532.702 536.758 531.684 537.776 531.684 539.033C531.684 540.289 532.702 541.307 533.958 541.307Z" stroke="#FFCF2D" stroke-width="1.06629" stroke-miterlimit="10"/>
<path d="M532.057 555.098C533.313 555.098 534.331 554.08 534.331 552.823C534.331 551.567 533.313 550.549 532.057 550.549C530.8 550.549 529.782 551.567 529.782 552.823C529.782 554.08 530.8 555.098 532.057 555.098Z" stroke="#FFCF2D" stroke-width="1.06629" stroke-miterlimit="10"/>
<path d="M538.632 564.162C539.888 564.162 540.907 563.143 540.907 561.887C540.907 560.631 539.888 559.612 538.632 559.612C537.376 559.612 536.357 560.631 536.357 561.887C536.357 563.143 537.376 564.162 538.632 564.162Z" stroke="#FFCF2D" stroke-width="1.06629" stroke-miterlimit="10"/>
<path d="M530.102 570.986C531.358 570.986 532.377 569.967 532.377 568.711C532.377 567.455 531.358 566.436 530.102 566.436C528.846 566.436 527.827 567.455 527.827 568.711C527.827 569.967 528.846 570.986 530.102 570.986Z" stroke="#FFCF2D" stroke-width="1.06629" stroke-miterlimit="10"/>
<path d="M541.067 549.66C542.323 549.66 543.341 548.642 543.341 547.385C543.341 546.129 542.323 545.111 541.067 545.111C539.81 545.111 538.792 546.129 538.792 547.385C538.792 548.642 539.81 549.66 541.067 549.66Z" stroke="#FFCF2D" stroke-width="1.06629" stroke-miterlimit="10"/>
<path d="M547.66 540.33C548.916 540.33 549.935 539.312 549.935 538.055C549.935 536.799 548.916 535.781 547.66 535.781C546.404 535.781 545.385 536.799 545.385 538.055C545.385 539.312 546.404 540.33 547.66 540.33Z" stroke="#FFCF2D" stroke-width="1.06629" stroke-miterlimit="10"/>
<path d="M555.159 547.883C556.416 547.883 557.434 546.864 557.434 545.608C557.434 544.352 556.416 543.333 555.159 543.333C553.903 543.333 552.885 544.352 552.885 545.608C552.885 546.864 553.903 547.883 555.159 547.883Z" stroke="#FFCF2D" stroke-width="1.06629" stroke-miterlimit="10"/>
<path d="M546.576 555.329C547.832 555.329 548.851 554.311 548.851 553.054C548.851 551.798 547.832 550.78 546.576 550.78C545.32 550.78 544.301 551.798 544.301 553.054C544.301 554.311 545.32 555.329 546.576 555.329Z" stroke="#FFCF2D" stroke-width="1.06629" stroke-miterlimit="10"/>
<path d="M556.848 560.092C558.104 560.092 559.123 559.073 559.123 557.817C559.123 556.561 558.104 555.542 556.848 555.542C555.592 555.542 554.573 556.561 554.573 557.817C554.573 559.073 555.592 560.092 556.848 560.092Z" stroke="#FFCF2D" stroke-width="1.06629" stroke-miterlimit="10"/>
<path d="M549.935 568.835C551.191 568.835 552.209 567.817 552.209 566.561C552.209 565.304 551.191 564.286 549.935 564.286C548.678 564.286 547.66 565.304 547.66 566.561C547.66 567.817 548.678 568.835 549.935 568.835Z" stroke="#FFCF2D" stroke-width="1.06629" stroke-miterlimit="10"/>
<path d="M570.887 497.039C570.887 497.039 587.77 487.922 590.56 503.845C593.794 522.239 571.829 538.429 571.829 538.429C571.829 538.429 567.102 526.717 554.431 516.623C543.466 507.897 552.565 484.759 570.887 497.039Z" fill="white" stroke="#FFCF2D" stroke-width="1.06629" stroke-miterlimit="10"/>
<path d="M537.743 476.762C545.758 476.833 557.274 460.554 546.398 442.694C533.265 421.119 531.008 408.626 531.008 408.626C531.008 408.626 511.69 434.181 514.978 453.783C518.586 475.251 537.743 476.762 537.743 476.762Z" fill="#FFCF2D"/>
<path d="M539.13 465.921C550.841 469.013 561.966 461.887 562.197 445.644C562.606 416.925 568.044 407.578 568.044 407.578C568.044 407.578 531.559 420.711 526.032 441.112C520.772 460.554 539.13 465.921 539.13 465.921Z" fill="white" stroke="#FFCF2D" stroke-width="1.06629" stroke-miterlimit="10"/>
<path d="M490.187 484.83C489.761 484.866 489.316 484.901 488.836 484.937C463.637 486.82 456.386 509.888 456.386 509.888C456.386 509.888 454.84 508.217 455.16 502.442C455.764 487.549 469.466 472.159 485.104 481.933C486.846 483.035 488.552 483.977 490.187 484.83Z" fill="#FFCF2D"/>
<path d="M518.764 490.499C514.321 490.783 504.173 492.01 490.187 484.83C488.552 483.995 486.846 483.035 485.104 481.933C469.466 472.159 456.119 487.549 455.515 502.441C455.479 503.17 455.657 503.899 455.693 504.61C454.218 491.672 454.253 459.47 493.404 460.554C520.31 461.336 518.764 490.499 518.764 490.499Z" fill="white" stroke="#FFCF2D" stroke-width="1.06629" stroke-miterlimit="10"/>
<path d="M525.161 523.785C525.161 523.785 529.799 459.15 467.12 467.592" stroke="#FFCF2D" stroke-width="1.06629" stroke-miterlimit="10"/>
<path d="M568.044 407.578C528.555 447.919 535.913 523.785 535.913 523.785C531.754 494.764 557.274 465.921 570.869 496.275C574.921 505.303 571.811 538.411 571.811 538.411" stroke="#FFCF2D" stroke-width="1.06629" stroke-miterlimit="10"/>
<path d="M41.937 472.976L36.6411 477.615C35.7881 476.602 35.0239 475.482 34.3664 474.256L1.34704 412.731C-0.0391265 410.154 1.82688 407.044 4.74139 407.044H9.36197C13.0584 407.044 16.435 409.07 18.1766 412.322L44.1407 460.696C46.3799 464.819 45.4557 469.92 41.937 472.976Z" fill="#FFCF2D"/>
<path d="M131.825 474.327L54.999 490.108V488.509C54.999 480.849 60.3838 474.256 67.8833 472.71L117.377 462.544C124.841 461.016 131.825 466.721 131.825 474.327Z" fill="#FFCF2D"/>
<path d="M123.117 572.532V495.564C123.117 489.184 117.27 484.421 111.014 485.701L62.765 495.599C57.0248 496.772 52.2976 500.789 50.2006 506.262L24.7341 572.532" stroke="#9A3B82" stroke-width="1.06629" stroke-miterlimit="10" stroke-linecap="round"/>
<path d="M1.15137 412.394L38.6668 482.289C41.8835 488.278 48.6366 491.441 55.3009 490.072L132.002 474.327" stroke="#9A3B82" stroke-width="1.06629" stroke-miterlimit="10" stroke-linecap="round"/>
<path d="M159.069 417.245H94.1497V425.918H159.069V417.245Z" fill="#66B0F0"/>
<path d="M147.233 407.826C148.015 408.555 148.495 409.87 148.495 410.972C148.495 413.175 146.575 415.432 144.194 415.432H84.9795C84.9795 416.463 85.8147 417.298 86.8455 417.298H158.304C160.224 417.298 161.948 416.588 163.209 415.415C164.471 414.26 165.235 412.642 165.235 410.865C165.235 407.311 162.125 404.45 158.304 404.45H86.8455C85.8147 404.45 84.9795 405.285 84.9795 406.316V406.653H144.194C145.385 406.671 146.451 407.115 147.233 407.826Z" fill="#FE5244"/>
<path d="M89.2625 406.671V415.273H84.9973V415.983H144.407C145.065 415.983 145.704 415.859 146.273 415.628C146.913 415.379 147.482 414.988 147.944 414.526C148.85 413.62 149.419 412.358 149.419 410.972C149.419 408.199 147.162 405.96 144.407 405.96H84.9973V406.671H89.2625V406.671Z" fill="#FE5244"/>
<path d="M87.6099 406.671V415.273H144.194C146.575 415.273 148.495 413.353 148.495 410.972C148.495 409.781 148.015 408.715 147.233 407.933C146.451 407.151 145.385 406.671 144.194 406.671H87.6099V406.671Z" fill="white"/>
<path d="M87.6099 406.671V415.273" stroke="#FE5244" stroke-width="0.888571" stroke-miterlimit="10"/>
<path d="M136.286 412.767V419.946H141.244V413.691C141.244 412.198 142.452 410.99 143.945 410.99H146.149V410.065H138.969C137.512 410.065 136.286 411.274 136.286 412.767Z" fill="#FFCF2D"/>
<path d="M57.7004 433.346C57.7004 429.561 60.7749 426.486 64.5602 426.486H199.445C203.231 426.486 206.305 429.561 206.305 433.346" stroke="#9A3B82" stroke-width="1.06629" stroke-miterlimit="10" stroke-linecap="round"/>
<path d="M206.412 572.532L168.328 439.886C166.639 434.021 160.828 429.934 154.181 429.934H109.806C103.16 429.934 97.3484 434.021 95.6602 439.886L57.5938 572.532" stroke="#9A3B82" stroke-width="1.06629" stroke-miterlimit="10" stroke-linecap="round"/>
<path d="M238.383 549.571V568.907C238.383 570.915 240 572.532 242.008 572.532H290.346C290.346 572.532 290.631 563.557 283.273 561.052C270.78 556.804 264.951 549.571 264.951 549.571H238.383V549.571Z" fill="white" stroke="#FE5244" stroke-width="1.06629" stroke-miterlimit="10"/>
<path d="M265.271 559.47C267.243 558.919 274.352 554.992 271.917 552.557C270.762 551.402 267.99 552.557 267.99 552.557" stroke="#FE5244" stroke-width="1.06629" stroke-miterlimit="10"/>
<path d="M272.557 562.136C274.53 561.585 281.354 557.195 278.67 555.045C276.644 553.41 273.605 556.573 273.605 556.573" stroke="#FE5244" stroke-width="1.06629" stroke-miterlimit="10"/>
<path d="M266.444 551.135L238.383 559.861V549.571H264.969C264.969 549.571 265.448 550.176 266.444 551.135Z" fill="#FE5244"/>
<path d="M298.983 549.571V568.907C298.983 570.915 300.6 572.532 302.609 572.532H350.947C350.947 572.532 351.231 563.557 343.874 561.052C331.38 556.804 325.551 549.571 325.551 549.571H298.983V549.571Z" fill="white" stroke="#FE5244" stroke-width="1.06629" stroke-miterlimit="10"/>
<path d="M325.871 559.47C327.844 558.919 334.953 554.992 332.518 552.557C331.363 551.402 328.59 552.557 328.59 552.557" stroke="#FE5244" stroke-width="1.06629" stroke-miterlimit="10"/>
<path d="M333.157 562.136C335.13 561.585 341.954 557.195 339.271 555.045C337.245 553.41 334.206 556.573 334.206 556.573" stroke="#FE5244" stroke-width="1.06629" stroke-miterlimit="10"/>
<path d="M327.044 551.135L298.983 559.861V549.571H325.569C325.569 549.571 326.049 550.176 327.044 551.135Z" fill="#FE5244"/>
<path d="M251.445 357.107L233.94 540.366H270.549L288.942 451.562L296.46 470.488V540.366H334.579V462.012L314.249 357.107H251.445Z" fill="#3FB1B5"/>
<path d="M270.513 401.127L253.488 540.366" stroke="#9A3B82" stroke-width="1.06629" stroke-miterlimit="10"/>
<path d="M314.853 540.366V462.012L290.968 365.992" stroke="#9A3B82" stroke-width="1.06629" stroke-miterlimit="10"/>
<path d="M295.926 470.488L273.108 404.219C272.326 401.944 270.175 400.416 267.759 400.416" stroke="white" stroke-width="1.06629" stroke-miterlimit="10"/>
<path d="M248.548 387.407L251.445 357.107H314.249L316.044 366.419L248.548 387.407Z" fill="#9A3B82"/>
<path d="M334.65 549.571H296.317C294.878 549.571 293.705 548.398 293.705 546.959V542.978C293.705 541.539 294.878 540.366 296.317 540.366H334.65C336.09 540.366 337.263 541.539 337.263 542.978V546.959C337.245 548.398 336.09 549.571 334.65 549.571Z" fill="#9A3B82"/>
<path d="M271.206 549.571H232.873C231.434 549.571 230.261 548.398 230.261 546.959V542.978C230.261 541.539 231.434 540.366 232.873 540.366H271.206C272.646 540.366 273.819 541.539 273.819 542.978V546.959C273.801 548.398 272.646 549.571 271.206 549.571Z" fill="#9A3B82"/>
<path d="M373.517 362.474L385.53 407.418L325.64 423.43L313.609 378.45C313.236 377.046 312.33 375.944 311.174 375.269C310.019 374.594 308.598 374.363 307.194 374.736C304.404 375.482 302.733 378.361 303.479 381.152L315.511 426.131L314.196 426.486L302.182 381.542C301.222 377.97 303.284 374.31 306.803 373.243C306.874 373.225 306.945 373.208 307.016 373.19L365.164 357.64C368.807 356.68 372.539 358.848 373.517 362.474Z" fill="#66B0F0"/>
<path d="M314.942 378.148L326.955 423.092L325.64 423.448L313.609 378.468C313.236 377.064 312.329 375.962 311.174 375.287C310.019 374.612 308.597 374.381 307.193 374.754C304.403 375.5 302.733 378.379 303.479 381.169L315.51 426.149L314.195 426.504L302.182 381.56C301.222 377.988 303.284 374.327 306.802 373.261C310.374 372.426 313.982 374.576 314.942 378.148Z" fill="#9A3B82"/>
<path d="M313.609 378.45L324.894 420.675L314.764 423.376L303.479 381.152C302.733 378.361 304.386 375.482 307.193 374.736C308.597 374.363 310.019 374.594 311.174 375.269C312.329 375.944 313.236 377.046 313.609 378.45Z" fill="white"/>
<path d="M373.694 386.287L346.451 395.671L324.947 357.107H241.599C227.435 357.107 216.844 344.08 219.74 330.219L228.413 288.562C231.132 275.518 242.63 266.17 255.941 266.17H312.934C326.742 266.17 338.507 276.193 340.693 289.824L349.276 330.379L373.694 386.287Z" fill="#FFCF2D" stroke="white" stroke-width="1.06629" stroke-miterlimit="10"/>
<path d="M237.156 356.662C227.346 354.69 220.06 346.337 219.314 336.492C220.06 335.977 220.895 335.532 221.784 335.212C228.235 332.831 235.61 336.741 238.294 343.938C239.946 348.452 239.378 353.179 237.156 356.662Z" fill="white"/>
<path d="M299.214 241.184V266.188H271.615L277.977 249.554L299.214 241.184Z" fill="#E57281"/>
<path d="M305.558 230.663C305.541 230.663 305.505 230.681 305.487 230.681L297.295 232.849C294.362 233.631 292.105 235.799 291.146 238.536H288C286.01 238.536 284.393 240.153 284.393 242.143V242.197C284.393 244.08 285.832 245.627 287.68 245.787C287.663 245.804 287.663 245.804 287.663 245.804C287.663 245.804 286.205 252.735 277.693 250.407C277.693 250.407 278.031 232.174 278.386 226.505C278.688 221.831 303.479 212.98 305.772 216.748C307.798 220.089 305.452 221.653 303.461 222.346C306.98 221.6 313.627 220.604 314.302 223.572C315.084 227.02 308.064 230.005 305.558 230.663Z" fill="#9A3B82"/>
<path d="M307.158 243.441H306.287L306.536 247.706C306.714 250.763 304.261 253.357 301.204 253.357H297.366C293.669 253.357 290.666 250.354 290.666 246.657V245.822H288.018C286.028 245.822 284.41 244.205 284.41 242.215V242.161C284.41 240.171 286.028 238.554 288.018 238.554H291.164C292.123 235.817 294.38 233.631 297.312 232.867L305.505 230.699L308.313 241.948C308.597 242.659 307.922 243.441 307.158 243.441Z" fill="#E57281"/>
<path d="M291.501 246.995C291.128 250.905 295.038 253.695 298.734 253.695" stroke="#9A3B82" stroke-width="0.888571" stroke-miterlimit="10" stroke-linecap="round"/>
<path d="M290.062 242.819C290.062 241.433 288.942 240.313 287.556 240.313" stroke="#9A3B82" stroke-width="0.888571" stroke-miterlimit="10" stroke-linecap="round"/>
<path d="M304.137 240.277C304.5 240.277 304.794 239.665 304.794 238.909C304.794 238.153 304.5 237.541 304.137 237.541C303.773 237.541 303.479 238.153 303.479 238.909C303.479 239.665 303.773 240.277 304.137 240.277Z" fill="#9A3B82"/>
<path d="M301.293 236.03C301.293 236.03 303.479 234.359 306.607 234.359" stroke="#9A3B82" stroke-width="0.888571" stroke-miterlimit="10" stroke-linecap="round"/>
<path d="M292.834 368.498C292.834 368.498 314.604 369.44 322.264 351.971L318.212 344.56L306.109 349.216L292.834 368.498Z" fill="white" stroke="#FE5244" stroke-width="1.06629" stroke-miterlimit="10"/>
<path d="M310.268 261.604C309.219 261.693 308.26 262.155 307.549 262.866C306.767 263.648 306.269 264.732 306.269 265.94V353.5C306.269 361.852 299.499 368.623 291.146 368.623H257.576C248.548 368.623 241.581 360.786 242.541 351.883V351.865L254.626 268.748C255.23 264.643 258.731 261.604 262.889 261.604H310.268V261.604Z" fill="#FE5244" stroke="#FE5244" stroke-width="1.06629" stroke-miterlimit="10"/>
<path d="M306.892 261.603C305.843 261.692 304.884 262.154 304.173 262.865C303.515 263.522 303.071 264.375 302.947 265.335C302.929 265.531 302.911 265.726 302.911 265.922L302.2 272.621L293.67 353.481C293.67 361.834 286.899 368.605 278.547 368.605H257.594C248.566 368.605 241.6 360.768 242.559 351.864V351.846L248.015 314.278L254.644 268.729C254.697 268.338 254.786 267.947 254.893 267.557C255.924 264.056 259.158 261.585 262.89 261.585H306.892V261.603Z" fill="white" stroke="#FE5244" stroke-width="1.06629" stroke-miterlimit="10"/>
<path d="M299.41 279.037L296.229 302.904C295.18 307.791 291.377 310.404 285.868 311.292L248.192 316.766L253.684 279.019H299.41V279.037Z" fill="#FFCF2D"/>
<path d="M305.541 261.603H304.599C302.893 261.585 301.4 262.794 301.062 264.482L295.518 300.256C294.469 305.143 290.151 308.644 285.157 308.644H250.485C246.291 308.644 243.163 304.77 244.069 300.665L250.751 270.311C251.871 265.228 256.385 261.603 261.592 261.603H305.541Z" fill="#FE5244" stroke="#FE5244" stroke-width="1.06629" stroke-miterlimit="10"/>
<path d="M276.964 318.596L285.797 264.589C285.974 263.505 286.916 262.687 288.018 262.687C289.404 262.687 290.47 263.931 290.239 265.317L281.407 319.325C281.229 320.409 280.287 321.226 279.186 321.226C277.799 321.226 276.733 319.982 276.964 318.596Z" fill="white" stroke="#FE5244" stroke-width="1.06629" stroke-miterlimit="10"/>
<path d="M257.22 318.596L266.053 264.589C266.23 263.505 267.172 262.687 268.274 262.687C269.66 262.687 270.727 263.931 270.496 265.317L261.663 319.325C261.485 320.409 260.544 321.226 259.442 321.226C258.056 321.226 256.989 319.982 257.22 318.596Z" fill="white" stroke="#FE5244" stroke-width="1.06629" stroke-miterlimit="10"/>
<path d="M314.977 266.206L306.287 266.241V265.939C306.287 264.731 306.767 263.647 307.567 262.865C308.278 262.154 309.219 261.692 310.286 261.603H310.997C313.182 261.781 314.906 263.629 314.977 266.206Z" fill="white" stroke="#FE5244" stroke-width="1.06629" stroke-miterlimit="10"/>
<path d="M370.442 387.407L377.764 406.298C378.937 409.337 377.231 412.714 374.103 413.584L358.02 417.992C357.043 418.258 356.012 418.027 355.248 417.37L353.613 415.948L356.954 415.059C358.429 414.668 359.424 413.3 359.353 411.772L358.98 408.004C358.909 406.316 357.54 404.965 355.852 404.912H356.03C353.986 404.841 351.996 403.579 351.196 401.695L348.637 394.889L370.442 387.407Z" fill="#E57281"/>
<path d="M353.95 416.321L356.58 415.61C358.055 415.219 359.051 414.029 358.98 412.5L358.784 408.377C358.713 406.689 357.345 405.338 355.656 405.285C353.613 405.214 351.8 403.952 351 402.069L348.263 395.617" stroke="white" stroke-width="1.06629" stroke-miterlimit="10" stroke-linecap="round"/>
<path d="M362.552 416.286C364.436 415.788 365.715 414.046 365.626 412.092L365.377 406.831" stroke="white" stroke-width="1.06629" stroke-miterlimit="10" stroke-linecap="round"/>
<path d="M369.358 414.526C371.242 414.029 372.521 412.287 372.433 410.332L372.184 405.072" stroke="white" stroke-width="1.06629" stroke-miterlimit="10" stroke-linecap="round"/>
<path d="M308.473 308.644L312.774 331.143C313.502 334.981 314.853 338.696 316.755 342.108L346.433 395.671L373.676 386.287" stroke="white" stroke-width="1.06629" stroke-miterlimit="10"/>
<path d="M326.475 359.666L316.754 342.108C315.119 339.14 313.893 335.976 313.111 332.689C314.035 332.387 314.995 332.173 316.008 332.085C323.685 331.409 330.492 337.86 331.22 346.479C331.647 351.704 329.745 356.52 326.475 359.666Z" fill="white"/>
</svg>
