<svg width="40" height="37" viewBox="0 0 40 37" fill="none" xmlns="http://www.w3.org/2000/svg">
<path d="M20 0.425781C8.95 0.425781 0 8.77416 0 19.0814C0 27.3365 5.725 34.309 13.675 36.7809C14.675 36.9441 15.05 36.3845 15.05 35.8947C15.05 35.4517 15.025 33.9825 15.025 32.4201C10 33.283 8.7 31.2775 8.3 30.2281C8.075 29.6918 7.1 28.0361 6.25 27.593C5.55 27.2432 4.55 26.3804 6.225 26.3571C7.8 26.3338 8.925 27.7096 9.3 28.2693C11.1 31.0909 13.975 30.2981 15.125 29.8084C15.3 28.5957 15.825 27.7796 16.4 27.3132C11.95 26.8468 7.3 25.2377 7.3 18.102C7.3 16.0732 8.075 14.3942 9.35 13.0883C9.15 12.6219 8.45 10.7097 9.55 8.14454C9.55 8.14454 11.225 7.65483 15.05 10.0567C16.65 9.63699 18.35 9.42711 20.05 9.42711C21.75 9.42711 23.45 9.63699 25.05 10.0567C28.875 7.63151 30.55 8.14454 30.55 8.14454C31.65 10.7097 30.95 12.6219 30.75 13.0883C32.025 14.3942 32.8 16.0498 32.8 18.102C32.8 25.2611 28.125 26.8468 23.675 27.3132C24.4 27.8962 25.025 29.0155 25.025 30.7645C25.025 33.2596 25 35.2651 25 35.8947C25 36.3845 25.375 36.9674 26.375 36.7809C30.3456 35.5309 33.7959 33.1508 36.2401 29.9757C38.6843 26.8005 39.9993 22.9903 40 19.0814C40 8.77416 31.05 0.425781 20 0.425781Z" fill="#F2F9FA"/>
</svg>
