<svg width="819" height="726" viewBox="0 0 819 726" fill="none" xmlns="http://www.w3.org/2000/svg">
<g clip-path="url(#clip0)">
<path d="M723.76 734.491H89.6018L348.747 97.8278H464.615L723.76 734.491Z" fill="#D0F0E4"/>
<path d="M395.692 49.9247L406.681 38.5548L417.67 49.9247" stroke="#FFCF2D" stroke-width="6.15254" stroke-miterlimit="10"/>
<path d="M406.681 117.68C416.452 117.68 424.373 109.484 424.373 99.3747C424.373 89.265 416.452 81.0694 406.681 81.0694C396.91 81.0694 388.989 89.265 388.989 99.3747C388.989 109.484 396.91 117.68 406.681 117.68Z" fill="#FFCF2D" stroke="white" stroke-width="6.15254" stroke-miterlimit="10"/>
<path d="M464.615 97.8278H348.772L350.317 90.5314C355.4 66.5025 379.097 49.0739 406.706 49.0739C420.51 49.0739 433.343 53.431 443.335 60.7789C453.352 68.1268 460.528 78.4912 463.07 90.5057L464.615 97.8278Z" stroke="#9A3B82" stroke-width="6.15254" stroke-miterlimit="10" stroke-linecap="round"/>
<path d="M406.144 40V-30" stroke="#FFCF2D" stroke-width="6" stroke-miterlimit="10"/>
<path d="M585.217 508.433H573.456V585.264H585.217V508.433Z" fill="#66B0F0"/>
<path d="M798.787 585.264H731.833C729.416 585.264 727.547 583.098 727.846 580.623L737.165 499.229C737.415 497.141 739.134 495.568 741.152 495.568H808.106C810.524 495.568 812.392 497.734 812.093 500.209L802.774 581.603C802.525 583.691 800.806 585.264 798.787 585.264Z" fill="#9A3B82"/>
<path d="M762.308 585.264H709.432C706.193 585.264 703.676 582.325 704.05 578.999L710.827 519.726C711.151 516.916 713.469 514.776 716.21 514.776H770.356L762.308 585.264Z" fill="white" stroke="#FFCF2D" stroke-width="6.15254" stroke-miterlimit="10"/>
<path d="M768.238 585.264H717.779C714.54 585.264 712.023 582.325 712.397 578.999L719.175 519.726C719.499 516.916 721.816 514.776 724.557 514.776H775.663C777.283 514.776 778.554 516.245 778.355 517.921L770.929 582.763C770.78 584.207 769.608 585.264 768.238 585.264Z" fill="white" stroke="#FFCF2D" stroke-width="6.15254" stroke-miterlimit="10"/>
<path d="M606.372 519.984H585.964V585.264H606.372V519.984Z" stroke="#9A3B82" stroke-width="6.15254" stroke-miterlimit="10" stroke-linecap="round"/>
<path d="M628.001 519.984H599.271V585.264H628.001V519.984Z" stroke="#9A3B82" stroke-width="6.15254" stroke-miterlimit="10" stroke-linecap="round"/>
<path d="M662.811 585.264H654.862L625.285 512.816H633.233L662.811 585.264Z" stroke="#9A3B82" stroke-width="6.15254" stroke-miterlimit="10" stroke-linecap="round"/>
<path d="M677.961 585.264H663.16L637.694 523.825H652.495L677.961 585.264Z" stroke="#9A3B82" stroke-width="6.15254" stroke-miterlimit="10" stroke-linecap="round"/>
<path d="M572.708 519.984H552.126V585.264H572.708V519.984Z" stroke="#9A3B82" stroke-width="6.15254" stroke-miterlimit="10" stroke-linecap="round"/>
<path d="M647.86 469.941H552.126V482.677H647.86V469.941Z" stroke="#9A3B82" stroke-width="6.15254" stroke-miterlimit="10" stroke-linecap="round"/>
<path d="M673.401 460.195H552.126V470.456H673.401V460.195Z" fill="#FE5244"/>
<path d="M633.981 445.396H552.126V459.937H633.981V445.396Z" fill="#FFCF2D"/>
<path d="M647.86 434.284H552.126V445.138H647.86V434.284Z" stroke="#9A3B82" stroke-width="6.15254" stroke-miterlimit="10" stroke-linecap="round"/>
<path d="M813.04 405.666L812.966 406.104L801.653 482.677H696.699L708.012 406.104L708.161 405.021C709.955 401.257 720.919 398.344 734.2 398.344C748.727 398.344 760.489 401.824 760.489 406.104C760.489 401.824 772.25 398.344 786.777 398.344C800.806 398.37 812.243 401.592 813.04 405.666Z" fill="white" stroke="#FFCF2D" stroke-width="6.15254" stroke-miterlimit="10"/>
<path d="M749.301 482.703L760.514 406.13" stroke="#FFCF2D" stroke-width="6.15254" stroke-miterlimit="10"/>
<path d="M749.3 482.703C749.3 478.423 737.539 474.942 723.012 474.942C708.485 474.942 696.724 478.423 696.724 482.703H749.3Z" fill="#FFCF2D"/>
<path d="M801.877 482.703C801.877 478.423 790.116 474.942 775.589 474.942C761.062 474.942 749.301 478.423 749.301 482.703H801.877Z" fill="#FFCF2D"/>
<path d="M749.699 481.078C749.55 476.799 761.186 472.906 775.713 472.364C784.783 472.029 793.729 473.344 798.438 475.226L809.651 402.288" stroke="#FFCF2D" stroke-width="6.15254" stroke-miterlimit="10" stroke-linecap="round"/>
<path d="M804.668 380.116H710.429V358.407C710.429 356.267 712.098 354.54 714.166 354.54H800.955C803.023 354.54 804.693 356.267 804.693 358.407V380.116H804.668Z" fill="white" stroke="#9A3B82" stroke-width="6.15254" stroke-miterlimit="10" stroke-linecap="round"/>
<path d="M812.193 353.509H730.986C729.715 353.509 728.719 352.452 728.719 351.162V342.525C728.719 341.211 729.74 340.179 730.986 340.179H812.193C813.464 340.179 814.461 341.236 814.461 342.525V351.162C814.461 352.452 813.439 353.509 812.193 353.509Z" fill="#FFCF2D"/>
<path d="M815.358 332.084H719.026V340.179H815.358V332.084Z" fill="#FE5244"/>
<path d="M813.614 332.084H740.081C739.109 332.084 738.337 331.259 738.337 330.279V323.756C738.337 322.751 739.134 321.951 740.081 321.951H813.614C814.585 321.951 815.358 322.776 815.358 323.756V330.279C815.358 331.259 814.585 332.084 813.614 332.084Z" fill="white" stroke="#9A3B82" stroke-width="6.15254" stroke-miterlimit="10" stroke-linecap="round"/>
<path d="M611.331 300.475H583.049V380.116H611.331V300.475Z" stroke="#9A3B82" stroke-width="6.15254" stroke-miterlimit="10" stroke-linecap="round"/>
<path d="M583.049 300.475H571.637V380.116H583.049V300.475Z" fill="white" stroke="#9A3B82" stroke-width="6.15254" stroke-miterlimit="10" stroke-linecap="round"/>
<path d="M571.637 300.475H552.45V380.116H571.637V300.475Z" fill="white" stroke="#9A3B82" stroke-width="6.15254" stroke-miterlimit="10" stroke-linecap="round"/>
<path d="M639.861 314.861H615.068V380.142H639.861V314.861Z" stroke="#9A3B82" stroke-width="6.15254" stroke-miterlimit="10" stroke-linecap="round"/>
<path d="M616.863 380.116H607.095C606.148 380.116 605.35 379.317 605.35 378.311V316.615C605.35 315.635 606.123 314.81 607.095 314.81H616.863C617.809 314.81 618.607 315.609 618.607 316.615V378.311C618.582 379.317 617.809 380.116 616.863 380.116Z" fill="white" stroke="#9A3B82" stroke-width="6.15254" stroke-miterlimit="10" stroke-linecap="round"/>
<path d="M639.861 314.861V350.647L626.431 314.861H639.861Z" fill="#9A3B82"/>
<path d="M697.272 380.116H657.603C656.731 380.116 655.934 379.549 655.635 378.724L629.87 310.092C629.322 308.648 630.343 307.101 631.838 307.101H671.507C672.38 307.101 673.177 307.668 673.476 308.493L699.241 377.125C699.789 378.569 698.768 380.116 697.272 380.116Z" fill="white" stroke="#FFCF2D" stroke-width="6.15254" stroke-miterlimit="10"/>
<path d="M703.751 380.116H664.082C663.21 380.116 662.412 379.549 662.113 378.724L636.348 310.092C635.8 308.648 636.822 307.101 638.317 307.101H677.986C678.858 307.101 679.655 307.668 679.954 308.493L705.719 377.125C706.268 378.569 705.246 380.116 703.751 380.116Z" fill="white" stroke="#FFCF2D" stroke-width="6.15254" stroke-miterlimit="10"/>
<path d="M773.421 260.126C769.708 261.209 765.771 261.802 761.734 261.802C738.137 261.802 719.025 242.027 719.025 217.611C719.025 197.476 732.057 180.459 749.874 175.148L773.421 260.126Z" stroke="#FFCF2D" stroke-width="6.15254" stroke-miterlimit="10"/>
<path d="M761.734 261.802V277.555" stroke="#FFCF2D" stroke-width="6.15254" stroke-miterlimit="10"/>
<path d="M761.735 255.047C781.717 255.047 797.915 238.286 797.915 217.611C797.915 196.936 781.717 180.176 761.735 180.176C741.753 180.176 725.554 196.936 725.554 217.611C725.554 238.286 741.753 255.047 761.735 255.047Z" fill="white" stroke="#3FB1B5" stroke-width="6.15254" stroke-miterlimit="10"/>
<path d="M776.859 277.452H746.734L761.685 269.691L776.859 277.452Z" fill="white" stroke="#FFCF2D" stroke-width="6.15254" stroke-miterlimit="10"/>
<path d="M815.358 277.555V734.491H801.728V701.232C801.728 693.832 795.922 687.825 788.77 687.825H578.564C571.412 687.825 565.606 693.832 565.606 701.232V734.491H552.126V277.555H815.358Z" stroke="#9A3B82" stroke-width="6.15254" stroke-miterlimit="10" stroke-linecap="round"/>
<path d="M796.445 675.166H570.54C567.675 675.166 565.333 672.768 565.333 669.777V602.512C565.333 599.547 567.65 597.124 570.54 597.124H796.445C799.311 597.124 801.653 599.521 801.653 602.512V669.777C801.653 672.768 799.311 675.166 796.445 675.166Z" stroke="#3FB1B5" stroke-width="6.15254" stroke-miterlimit="10"/>
<path d="M695.403 214.801V277.555H674.174L695.403 214.801Z" fill="#9A3B82"/>
<path d="M695.403 214.801L695.254 215.265L674.298 277.555H576.869L597.825 215.265L598.498 213.28C601.638 208.613 610.334 205.21 620.7 205.03C620.874 205.03 621.024 205.03 621.198 205.03C621.373 205.03 621.522 205.03 621.696 205.03C633.807 205.03 644.596 209.387 646.564 215.11C648.508 209.387 658.824 205.03 670.934 205.03C682.795 205.03 693.186 209.232 695.403 214.801Z" fill="white" stroke="#FFCF2D" stroke-width="6.15254" stroke-miterlimit="10"/>
<path d="M646.54 215.11L625.384 276.266" stroke="#FFCF2D" stroke-width="6.15254" stroke-miterlimit="10" stroke-linecap="round"/>
<path d="M625.334 276.781H576.869C578.663 270.98 588.73 266.52 600.84 266.52C613 266.52 623.54 270.98 625.334 276.781Z" fill="#FFCF2D"/>
<path d="M674.173 276.781H625.708C627.502 270.98 637.569 266.52 649.679 266.52C661.839 266.52 672.379 270.98 674.173 276.781Z" fill="#FFCF2D"/>
<path d="M667.271 617.053C667.271 615.042 668.841 613.392 670.81 613.392H697.247C699.191 613.392 700.786 615.016 700.786 617.053" stroke="#9A3B82" stroke-width="6.15254" stroke-miterlimit="10" stroke-linecap="round"/>
<path d="M552.126 482.703H815.358" stroke="#9A3B82" stroke-width="6.15254" stroke-miterlimit="10" stroke-linecap="round"/>
<path d="M552.126 380.116H815.358" stroke="#9A3B82" stroke-width="6.15254" stroke-miterlimit="10" stroke-linecap="round"/>
<path d="M552.126 585.264H815.358" stroke="#9A3B82" stroke-width="6.15254" stroke-miterlimit="10" stroke-linecap="round"/>
<path d="M584.519 181.748L552.126 277.555H815.358L847.751 181.748" stroke="#9A3B82" stroke-width="6.15254" stroke-miterlimit="10" stroke-linecap="round" stroke-linejoin="round"/>
<path d="M877.303 709.895C877.303 715.077 876.381 720.053 874.687 724.668C872.22 731.371 865.965 735.754 859.013 735.754H806.262C799.335 735.754 793.056 731.371 790.614 724.668C788.92 720.053 787.998 715.077 787.998 709.895C787.998 694.941 795.647 681.74 807.334 673.851V665.137C807.334 668.953 818.671 672.046 832.625 672.046C846.604 672.046 857.917 668.953 857.917 665.137V673.877C869.653 681.74 877.303 694.941 877.303 709.895Z" fill="#FE5244"/>
<path d="M857.967 671.479V673.799C853.955 677.1 843.041 678.853 832.675 678.853C822.309 678.853 811.395 677.1 807.384 673.799V671.479C807.857 672.588 809.875 674.031 814.361 675.243C819.244 676.584 825.748 677.306 832.675 677.306C839.602 677.306 846.106 676.584 850.99 675.243C855.475 674.006 857.468 672.562 857.967 671.479Z" fill="white"/>
<path d="M857.967 665.137C857.967 668.952 846.629 672.046 832.675 672.046C818.721 672.046 807.384 668.952 807.384 665.137C807.384 664.647 807.558 664.183 807.907 663.719C810.299 660.599 820.465 658.227 832.675 658.227C844.885 658.227 855.051 660.573 857.443 663.719C857.767 664.183 857.967 664.647 857.967 665.137Z" fill="#66B0F0"/>
<path d="M798.812 698.937C800.573 698.937 802.001 697.46 802.001 695.637C802.001 693.814 800.573 692.337 798.812 692.337C797.05 692.337 795.622 693.814 795.622 695.637C795.622 697.46 797.05 698.937 798.812 698.937Z" stroke="#FFCF2D" stroke-width="6.15254" stroke-miterlimit="10"/>
<path d="M809.626 707.058C811.388 707.058 812.816 705.581 812.816 703.758C812.816 701.936 811.388 700.458 809.626 700.458C807.865 700.458 806.437 701.936 806.437 703.758C806.437 705.581 807.865 707.058 809.626 707.058Z" stroke="#FFCF2D" stroke-width="6.15254" stroke-miterlimit="10"/>
<path d="M823.082 697.416C824.843 697.416 826.271 695.938 826.271 694.116C826.271 692.293 824.843 690.816 823.082 690.816C821.32 690.816 819.892 692.293 819.892 694.116C819.892 695.938 821.32 697.416 823.082 697.416Z" stroke="#FFCF2D" stroke-width="6.15254" stroke-miterlimit="10"/>
<path d="M821.188 719.331C822.95 719.331 824.378 717.853 824.378 716.031C824.378 714.208 822.95 712.73 821.188 712.73C819.427 712.73 817.999 714.208 817.999 716.031C817.999 717.853 819.427 719.331 821.188 719.331Z" stroke="#FFCF2D" stroke-width="6.15254" stroke-miterlimit="10"/>
<path d="M809.228 728.947C810.989 728.947 812.417 727.47 812.417 725.647C812.417 723.825 810.989 722.347 809.228 722.347C807.466 722.347 806.038 723.825 806.038 725.647C806.038 727.47 807.466 728.947 809.228 728.947Z" stroke="#FFCF2D" stroke-width="6.15254" stroke-miterlimit="10"/>
<path d="M797.167 719.331C798.929 719.331 800.357 717.853 800.357 716.031C800.357 714.208 798.929 712.73 797.167 712.73C795.406 712.73 793.978 714.208 793.978 716.031C793.978 717.853 795.406 719.331 797.167 719.331Z" stroke="#FFCF2D" stroke-width="6.15254" stroke-miterlimit="10"/>
<path d="M811.37 686.691C813.132 686.691 814.56 685.213 814.56 683.39C814.56 681.568 813.132 680.09 811.37 680.09C809.609 680.09 808.181 681.568 808.181 683.39C808.181 685.213 809.609 686.691 811.37 686.691Z" stroke="#FFCF2D" stroke-width="6.15254" stroke-miterlimit="10"/>
<path d="M842.069 595.551C853.307 595.654 869.454 572.037 854.204 546.127C835.79 514.827 832.626 496.702 832.626 496.702C832.626 496.702 805.54 533.777 810.15 562.215C815.208 593.359 842.069 595.551 842.069 595.551Z" fill="#FFCF2D"/>
<path d="M844.013 579.824C860.434 584.31 876.032 573.971 876.356 550.406C876.929 508.743 884.554 495.181 884.554 495.181C884.554 495.181 833.398 514.234 825.649 543.832C818.273 572.038 844.013 579.824 844.013 579.824Z" fill="white" stroke="#FFCF2D" stroke-width="6.15254" stroke-miterlimit="10"/>
<path d="M775.389 607.256C774.791 607.308 774.168 607.359 773.496 607.411C738.162 610.144 727.996 643.609 727.996 643.609C727.996 643.609 725.828 641.185 726.276 632.806C727.124 611.201 746.335 588.873 768.263 603.053C770.705 604.652 773.097 606.018 775.389 607.256Z" fill="#FFCF2D"/>
<path d="M815.457 615.48C809.228 615.893 795 617.672 775.39 607.256C773.097 606.044 770.705 604.652 768.263 603.053C746.335 588.873 727.622 611.201 726.775 632.806C726.725 633.863 726.974 634.92 727.024 635.951C724.956 617.182 725.006 570.465 779.9 572.038C817.625 573.172 815.457 615.48 815.457 615.48Z" fill="white" stroke="#FFCF2D" stroke-width="6.15254" stroke-miterlimit="10"/>
<path d="M824.428 663.77C824.428 663.77 830.931 570.001 743.046 582.247" stroke="#FFCF2D" stroke-width="6.15254" stroke-miterlimit="10"/>
<path d="M64.1607 590.059L56.7352 596.788C55.5392 595.319 54.4677 593.695 53.5458 591.916L7.24853 502.658C5.30494 498.92 7.92131 494.408 12.0078 494.408H18.4865C23.6693 494.408 28.4037 497.347 30.8457 502.065L67.2505 572.244C70.3902 578.225 69.0944 585.625 64.1607 590.059Z" fill="#FFCF2D"/>
<path d="M190.195 592.019L82.4753 614.913V612.593C82.4753 601.481 90.0254 591.916 100.541 589.673L169.937 574.925C180.402 572.708 190.195 580.984 190.195 592.019Z" fill="#FFCF2D"/>
<path d="M177.985 734.491V622.828C177.985 613.573 169.787 606.663 161.016 608.519L93.3644 622.88C85.3159 624.582 78.6878 630.408 75.7475 638.349L40.0403 734.491" stroke="#9A3B82" stroke-width="6.15254" stroke-miterlimit="10" stroke-linecap="round"/>
<path d="M6.97437 502.168L59.5758 603.569C64.086 612.258 73.5547 616.847 82.8989 614.862L190.444 592.019" stroke="#9A3B82" stroke-width="6.15254" stroke-miterlimit="10" stroke-linecap="round"/>
<path d="M228.394 509.207H137.369V521.788H228.394V509.207Z" fill="#66B0F0"/>
<path d="M211.799 495.542C212.895 496.599 213.568 498.507 213.568 500.106C213.568 503.303 210.877 506.577 207.538 506.577H124.512C124.512 508.072 125.683 509.284 127.128 509.284H227.323C230.014 509.284 232.431 508.253 234.2 506.551C235.969 504.875 237.041 502.529 237.041 499.951C237.041 494.794 232.68 490.644 227.323 490.644H127.128C125.683 490.644 124.512 491.855 124.512 493.351V493.841H207.538C209.207 493.866 210.702 494.511 211.799 495.542Z" fill="#FE5244"/>
<path d="M130.517 493.866V506.345H124.537V507.376H207.837C208.759 507.376 209.656 507.196 210.453 506.861C211.35 506.5 212.148 505.932 212.795 505.262C214.066 503.947 214.864 502.117 214.864 500.106C214.864 496.084 211.699 492.835 207.837 492.835H124.537V493.866H130.517V493.866Z" fill="#FE5244"/>
<path d="M128.2 493.866V506.345H207.538C210.877 506.345 213.568 503.56 213.568 500.106C213.568 498.378 212.895 496.831 211.799 495.697C210.703 494.562 209.207 493.866 207.538 493.866H128.2V493.866Z" fill="white"/>
<path d="M128.2 493.866V506.345" stroke="#FE5244" stroke-width="5.12712" stroke-miterlimit="10"/>
<path d="M196.449 502.71V513.125H203.402V504.05C203.402 501.885 205.096 500.131 207.189 500.131H210.279V498.791H200.212C198.169 498.791 196.449 500.544 196.449 502.71Z" fill="#FFCF2D"/>
<path d="M86.2627 532.565C86.2627 527.074 90.5735 522.613 95.881 522.613H285.007C290.315 522.613 294.625 527.074 294.625 532.565" stroke="#9A3B82" stroke-width="6.15254" stroke-miterlimit="10" stroke-linecap="round"/>
<path d="M294.775 734.491L241.376 542.053C239.009 533.545 230.861 527.615 221.541 527.615H159.322C150.003 527.615 141.854 533.545 139.487 542.053L86.1133 734.491" stroke="#9A3B82" stroke-width="6.15254" stroke-miterlimit="10" stroke-linecap="round"/>
<path d="M339.602 701.18V729.231C339.602 732.144 341.87 734.49 344.685 734.49H412.462C412.462 734.49 412.86 721.471 402.544 717.835C385.027 711.673 376.854 701.18 376.854 701.18H339.602V701.18Z" fill="white" stroke="#FE5244" stroke-width="6.15254" stroke-miterlimit="10"/>
<path d="M377.303 715.541C380.069 714.741 390.036 709.044 386.622 705.512C385.002 703.836 381.115 705.512 381.115 705.512" stroke="#FE5244" stroke-width="6.15254" stroke-miterlimit="10"/>
<path d="M387.519 719.408C390.285 718.609 399.853 712.241 396.091 709.121C393.25 706.749 388.989 711.338 388.989 711.338" stroke="#FE5244" stroke-width="6.15254" stroke-miterlimit="10"/>
<path d="M378.947 703.449L339.602 716.108V701.18H376.879C376.879 701.18 377.552 702.057 378.947 703.449Z" fill="#FE5244"/>
<path d="M424.572 701.18V729.231C424.572 732.144 426.839 734.491 429.655 734.491H497.432C497.432 734.491 497.83 721.471 487.514 717.835C469.997 711.673 461.824 701.18 461.824 701.18H424.572V701.18Z" fill="white" stroke="#FE5244" stroke-width="6.15254" stroke-miterlimit="10"/>
<path d="M462.272 715.541C465.038 714.741 475.006 709.044 471.592 705.512C469.972 703.836 466.085 705.512 466.085 705.512" stroke="#FE5244" stroke-width="6.15254" stroke-miterlimit="10"/>
<path d="M472.489 719.408C475.255 718.609 484.823 712.241 481.061 709.121C478.22 706.749 473.959 711.338 473.959 711.338" stroke="#FE5244" stroke-width="6.15254" stroke-miterlimit="10"/>
<path d="M463.917 703.449L424.572 716.108V701.18H461.849C461.849 701.18 462.522 702.057 463.917 703.449Z" fill="#FE5244"/>
<path d="M357.917 421.96L333.373 687.825H384.703L410.493 558.992L421.033 586.45V687.825H474.482V574.152L445.976 421.96H357.917Z" fill="#3FB1B5"/>
<path d="M384.653 485.822L360.782 687.825" stroke="#9A3B82" stroke-width="6.15254" stroke-miterlimit="10"/>
<path d="M446.823 687.825V574.152L413.334 434.851" stroke="#9A3B82" stroke-width="6.15254" stroke-miterlimit="10"/>
<path d="M420.286 586.45L388.292 490.308C387.195 487.008 384.18 484.791 380.791 484.791" stroke="white" stroke-width="6.15254" stroke-miterlimit="10"/>
<path d="M353.855 465.919L357.917 421.96H445.976L448.493 435.47L353.855 465.919Z" fill="#9A3B82"/>
<path d="M474.582 701.18H420.834C418.816 701.18 417.171 699.479 417.171 697.39V691.615C417.171 689.527 418.816 687.825 420.834 687.825H474.582C476.6 687.825 478.245 689.527 478.245 691.615V697.39C478.22 699.479 476.6 701.18 474.582 701.18Z" fill="#9A3B82"/>
<path d="M385.625 701.18H331.878C329.859 701.18 328.215 699.479 328.215 697.39V691.615C328.215 689.527 329.859 687.825 331.878 687.825H385.625C387.644 687.825 389.288 689.527 389.288 691.615V697.39C389.263 699.479 387.644 701.18 385.625 701.18Z" fill="#9A3B82"/>
<path d="M529.077 429.746L545.921 494.949L461.948 518.179L445.079 452.924C444.556 450.888 443.285 449.289 441.665 448.309C440.046 447.33 438.052 446.994 436.084 447.536C432.172 448.619 429.829 452.795 430.876 456.843L447.745 522.098L445.901 522.613L429.057 457.41C427.711 452.228 430.602 446.917 435.536 445.37C435.635 445.344 435.735 445.319 435.835 445.293L517.366 422.734C522.474 421.341 527.707 424.487 529.077 429.746Z" fill="#66B0F0"/>
<path d="M446.948 452.486L463.792 517.689L461.949 518.205L445.079 452.95C444.556 450.913 443.285 449.315 441.665 448.335C440.046 447.356 438.052 447.02 436.084 447.562C432.172 448.645 429.829 452.821 430.876 456.869L447.745 522.124L445.901 522.639L429.057 457.436C427.711 452.254 430.602 446.943 435.536 445.396C440.544 444.184 445.602 447.304 446.948 452.486Z" fill="#9A3B82"/>
<path d="M445.079 452.924L460.902 514.183L446.699 518.101L430.876 456.843C429.829 452.796 432.147 448.619 436.084 447.536C438.052 446.995 440.046 447.33 441.665 448.309C443.285 449.289 444.556 450.888 445.079 452.924Z" fill="white"/>
<path d="M529.326 464.294L491.127 477.907L460.977 421.96H344.112C324.253 421.96 309.402 403.062 313.463 382.952L325.623 322.519C329.436 303.595 345.557 290.033 364.221 290.033H444.132C463.493 290.033 479.989 304.574 483.054 324.349L495.089 383.184L529.326 464.294Z" fill="#FFCF2D" stroke="white" stroke-width="6.15254" stroke-miterlimit="10"/>
<path d="M337.883 421.316C324.128 418.454 313.912 406.336 312.865 392.053C313.912 391.305 315.083 390.661 316.329 390.197C325.374 386.742 335.715 392.414 339.477 402.856C341.795 409.404 340.997 416.262 337.883 421.316Z" fill="white"/>
<path d="M424.896 253.784V290.059H386.198L395.119 265.927L424.896 253.784Z" fill="#E57281"/>
<path d="M433.791 238.521C433.766 238.521 433.717 238.546 433.692 238.546L422.205 241.692C418.093 242.826 414.929 245.972 413.583 249.942H409.173C406.382 249.942 404.114 252.288 404.114 255.176V255.253C404.114 257.986 406.133 260.229 408.724 260.461C408.699 260.487 408.699 260.487 408.699 260.487C408.699 260.487 406.656 270.542 394.72 267.164C394.72 267.164 395.194 240.712 395.692 232.488C396.116 225.707 430.876 212.867 434.09 218.333C436.931 223.18 433.642 225.449 430.851 226.455C435.785 225.372 445.104 223.928 446.051 228.234C447.147 233.235 437.305 237.567 433.791 238.521Z" fill="#9A3B82"/>
<path d="M436.034 257.058H434.813L435.162 263.246C435.411 267.68 431.972 271.444 427.686 271.444H422.304C417.121 271.444 412.91 267.087 412.91 261.724V260.513H409.197C406.406 260.513 404.139 258.167 404.139 255.279V255.202C404.139 252.314 406.406 249.968 409.197 249.968H413.608C414.953 245.997 418.118 242.826 422.229 241.718L433.717 238.572L437.653 254.892C438.052 255.924 437.105 257.058 436.034 257.058Z" fill="#E57281"/>
<path d="M414.081 262.214C413.558 267.886 419.04 271.934 424.223 271.934" stroke="#9A3B82" stroke-width="5.12712" stroke-miterlimit="10" stroke-linecap="round"/>
<path d="M412.063 256.156C412.063 254.145 410.493 252.52 408.549 252.52" stroke="#9A3B82" stroke-width="5.12712" stroke-miterlimit="10" stroke-linecap="round"/>
<path d="M431.798 252.469C432.307 252.469 432.72 251.58 432.72 250.483C432.72 249.387 432.307 248.498 431.798 248.498C431.288 248.498 430.876 249.387 430.876 250.483C430.876 251.58 431.288 252.469 431.798 252.469Z" fill="#9A3B82"/>
<path d="M427.811 246.307C427.811 246.307 430.876 243.883 435.261 243.883" stroke="#9A3B82" stroke-width="5.12712" stroke-miterlimit="10" stroke-linecap="round"/>
<path d="M415.95 438.486C415.95 438.486 446.474 439.853 457.214 414.509L451.533 403.758L434.564 410.513L415.95 438.486Z" fill="white" stroke="#FE5244" stroke-width="6.15254" stroke-miterlimit="10"/>
<path d="M440.395 283.408C438.925 283.536 437.579 284.207 436.582 285.238C435.486 286.372 434.788 287.945 434.788 289.698V416.727C434.788 428.844 425.295 438.667 413.583 438.667H366.513C353.855 438.667 344.087 427.297 345.433 414.381V414.355L362.377 293.772C363.224 287.816 368.133 283.408 373.964 283.408H440.395V283.408Z" fill="#FE5244" stroke="#FE5244" stroke-width="6.15254" stroke-miterlimit="10"/>
<path d="M435.661 283.407C434.191 283.536 432.845 284.206 431.849 285.238C430.927 286.192 430.304 287.429 430.129 288.821C430.104 289.105 430.08 289.389 430.08 289.672L429.083 299.392L417.122 416.7C417.122 428.818 407.629 438.641 395.917 438.641H366.539C353.881 438.641 344.113 427.271 345.459 414.354V414.329L353.109 359.825L362.403 293.746C362.478 293.179 362.602 292.611 362.752 292.044C364.197 286.965 368.732 283.381 373.965 283.381H435.661V283.407Z" fill="white" stroke="#FE5244" stroke-width="6.15254" stroke-miterlimit="10"/>
<path d="M425.17 308.699L420.71 343.325C419.239 350.415 413.907 354.205 406.183 355.494L353.357 363.435L361.057 308.674H425.17V308.699Z" fill="#FFCF2D"/>
<path d="M433.767 283.407H432.446C430.054 283.381 427.961 285.135 427.487 287.584L419.713 339.483C418.243 346.573 412.188 351.652 405.186 351.652H356.571C350.691 351.652 346.305 346.032 347.576 340.076L356.945 296.04C358.515 288.667 364.844 283.407 372.145 283.407H433.767Z" fill="#FE5244" stroke="#FE5244" stroke-width="6.15254" stroke-miterlimit="10"/>
<path d="M393.699 366.09L406.083 287.739C406.332 286.166 407.653 284.98 409.197 284.98C411.141 284.98 412.636 286.785 412.312 288.796L399.928 367.147C399.679 368.72 398.358 369.906 396.813 369.906C394.87 369.906 393.375 368.101 393.699 366.09Z" fill="white" stroke="#FE5244" stroke-width="6.15254" stroke-miterlimit="10"/>
<path d="M366.015 366.09L378.399 287.739C378.648 286.166 379.969 284.98 381.514 284.98C383.457 284.98 384.953 286.785 384.629 288.796L372.244 367.147C371.995 368.72 370.675 369.906 369.13 369.906C367.186 369.906 365.691 368.101 366.015 366.09Z" fill="white" stroke="#FE5244" stroke-width="6.15254" stroke-miterlimit="10"/>
<path d="M446.998 290.085L434.813 290.136V289.698C434.813 287.945 435.486 286.372 436.607 285.238C437.604 284.206 438.924 283.536 440.419 283.407H441.416C444.481 283.665 446.898 286.346 446.998 290.085Z" fill="white" stroke="#FE5244" stroke-width="6.15254" stroke-miterlimit="10"/>
<path d="M524.766 465.919L535.033 493.325C536.677 497.734 534.285 502.632 529.9 503.896L507.349 510.289C505.979 510.676 504.533 510.341 503.462 509.387L501.169 507.325L505.854 506.035C507.922 505.468 509.317 503.483 509.218 501.266L508.695 495.8C508.595 493.351 506.676 491.391 504.309 491.314H504.558C501.693 491.211 498.902 489.38 497.781 486.647L494.192 476.773L524.766 465.919Z" fill="#E57281"/>
<path d="M501.643 507.866L505.331 506.835C507.399 506.268 508.794 504.54 508.694 502.323L508.42 496.341C508.321 493.892 506.402 491.933 504.035 491.855C501.169 491.752 498.628 489.922 497.506 487.189L493.669 477.83" stroke="white" stroke-width="6.15254" stroke-miterlimit="10" stroke-linecap="round"/>
<path d="M513.703 507.814C516.344 507.093 518.138 504.566 518.014 501.73L517.665 494.098" stroke="white" stroke-width="6.15254" stroke-miterlimit="10" stroke-linecap="round"/>
<path d="M523.246 505.262C525.888 504.54 527.682 502.013 527.557 499.177L527.208 491.546" stroke="white" stroke-width="6.15254" stroke-miterlimit="10" stroke-linecap="round"/>
<path d="M437.878 351.652L443.908 384.293C444.93 389.861 446.823 395.25 449.49 400.2L491.102 477.907L529.301 464.294" stroke="white" stroke-width="6.15254" stroke-miterlimit="10"/>
<path d="M463.12 425.673L449.489 400.2C447.197 395.895 445.478 391.305 444.381 386.536C445.677 386.097 447.023 385.788 448.443 385.659C459.207 384.679 468.751 394.038 469.773 406.542C470.371 414.122 467.704 421.109 463.12 425.673Z" fill="white"/>
</g>
<defs>
<clipPath id="clip0">
<rect width="818.288" height="726" fill="white"/>
</clipPath>
</defs>
</svg>
